<?xml version="1.0" encoding="UTF-8" standalone="no"?>
<svg
   id="Capa_1"
   data-name="Capa 1"
   viewBox="0 0 644.29999 198.86"
   version="1.1"
   sodipodi:docname="logo.svg"
   inkscape:version="1.2.2 (732a01da63, 2022-12-09)"
   width="644.29999"
   height="198.86"
   xmlns:inkscape="http://www.inkscape.org/namespaces/inkscape"
   xmlns:sodipodi="http://sodipodi.sourceforge.net/DTD/sodipodi-0.dtd"
   xmlns="http://www.w3.org/2000/svg"
   xmlns:svg="http://www.w3.org/2000/svg">
  <sodipodi:namedview
     id="namedview189"
     pagecolor="#000000"
     bordercolor="#000000"
     borderopacity="0.25"
     inkscape:showpageshadow="2"
     inkscape:pageopacity="0"
     inkscape:pagecheckerboard="0"
     inkscape:deskcolor="#d1d1d1"
     showgrid="false"
     inkscape:zoom="3.7560143"
     inkscape:cx="257.98624"
     inkscape:cy="100.10612"
     inkscape:window-width="2560"
     inkscape:window-height="1369"
     inkscape:window-x="-8"
     inkscape:window-y="-8"
     inkscape:window-maximized="1"
     inkscape:current-layer="Capa_1" />
  <defs
     id="defs102">
    <style
       id="style100">.cls-1,.cls-2{fill:#fff;}.cls-2{fill-rule:evenodd;}.cls-3{fill:#d88506;}</style>
  </defs>
  <path
     class="cls-1"
     d="m 124.93,144.58 a 49,49 0 0 1 -19,-3.69 47.51,47.51 0 0 1 -29.59,-44.34 46.32,46.32 0 0 1 3.82,-18.82 47,47 0 0 1 10.6,-15.2 48.49,48.49 0 0 1 15.88,-10.13 52,52 0 0 1 19.48,-3.62 53.06,53.06 0 0 1 21.77,4.34 44.63,44.63 0 0 1 16.26,12 l -14.08,14.06 a 29.28,29.28 0 0 0 -10.53,-8.69 31.36,31.36 0 0 0 -13.69,-2.9 29.33,29.33 0 0 0 -14.6,3.66 25.77,25.77 0 0 0 -10.07,10.1 30.71,30.71 0 0 0 -3.62,15.2 31.5,31.5 0 0 0 3.56,15.26 26.1,26.1 0 0 0 9.73,10.27 27.29,27.29 0 0 0 14.22,3.68 28.9,28.9 0 0 0 13.88,-3.09 21.19,21.19 0 0 0 8.81,-8.95 30.2,30.2 0 0 0 3.09,-14.28 l 13.69,9.21 -41.45,-0.66 V 90.5 h 48.82 v 3 q 0,16.71 -6,28.1 a 40.51,40.51 0 0 1 -16.57,17.19 50.07,50.07 0 0 1 -24.41,5.79 z"
     id="path104" />
  <path
     class="cls-1"
     d="m 211,144.58 a 32.65,32.65 0 0 1 -15.6,-3.62 26.65,26.65 0 0 1 -10.59,-10 28,28 0 0 1 -3.82,-14.71 V 79.18 h 20.13 v 36.84 a 13.22,13.22 0 0 0 1.12,5.66 8.21,8.21 0 0 0 3.36,3.68 10.44,10.44 0 0 0 5.4,1.32 9.24,9.24 0 0 0 7.1,-2.83 c 1.75,-1.89 2.63,-4.49 2.63,-7.83 V 79.18 h 20.13 v 37 a 28.35,28.35 0 0 1 -3.81,14.81 26.89,26.89 0 0 1 -10.53,10 32.22,32.22 0 0 1 -15.52,3.59 z"
     id="path106" />
  <path
     class="cls-1"
     d="m 263.63,70.36 a 10.35,10.35 0 0 1 -7.83,-3.23 11.54,11.54 0 0 1 0,-15.72 10.47,10.47 0 0 1 7.83,-3.16 10.27,10.27 0 0 1 7.76,3.16 11.71,11.71 0 0 1 0,15.72 10.15,10.15 0 0 1 -7.76,3.23 z m -10.14,72.77 V 79.18 h 20.14 v 63.95 z"
     id="path108" />
  <path
     class="cls-1"
     d="M 282.44,96.25 V 79.18 h 49.09 v 17.07 z m 14.48,46.85 V 52.73 h 20.13 v 90.4 z"
     id="path110" />
  <path
     class="cls-1"
     d="m 365.74,144.45 a 29,29 0 0 1 -15.73,-4.34 31.06,31.06 0 0 1 -10.92,-11.86 35.64,35.64 0 0 1 -4,-17.11 35.62,35.62 0 0 1 4,-17.1 31,31 0 0 1 10.92,-11.79 29,29 0 0 1 15.73,-4.34 26.51,26.51 0 0 1 11.65,2.5 22.65,22.65 0 0 1 8.48,6.91 18.56,18.56 0 0 1 3.69,10.07 v 27.63 a 18.92,18.92 0 0 1 -3.62,10.07 22,22 0 0 1 -8.49,6.91 27,27 0 0 1 -11.71,2.45 z m 4.08,-18.2 a 13.45,13.45 0 0 0 10.39,-4.28 15.36,15.36 0 0 0 4,-10.86 16.93,16.93 0 0 0 -1.78,-7.89 13.12,13.12 0 0 0 -5,-5.33 15.43,15.43 0 0 0 -14.87,0 14,14 0 0 0 -5.22,5.36 17.33,17.33 0 0 0 -0.06,15.66 13.72,13.72 0 0 0 5.13,5.39 14,14 0 0 0 7.41,1.95 z m 13.52,16.88 v -17.24 l 3,-15.52 -3,-15.53 V 79.18 h 19.75 v 63.95 z"
     id="path112" />
  <path
     class="cls-1"
     d="M 417.34,143.13 V 79.18 h 20.13 v 63.95 z m 20.13,-35.14 -8.42,-6.58 q 2.51,-11.18 8.42,-17.37 c 4,-4.12 9.43,-6.18 16.45,-6.18 a 21.92,21.92 0 0 1 8.1,1.38 16.29,16.29 0 0 1 6.11,4.28 l -12,15.13 a 8.73,8.73 0 0 0 -3.29,-2.23 11.87,11.87 0 0 0 -4.47,-0.79 10.49,10.49 0 0 0 -8,3.09 q -2.92,3.09 -2.92,9.27 z"
     id="path114" />
  <path
     class="cls-1"
     d="m 76.34,196.6 v -32 h 7.11 v 32 z"
     id="path116" />
  <path
     class="cls-1"
     d="m 89.64,196.6 v -32 h 5 l 2.12,6.39 v 25.59 z m 22.06,0 -18.84,-24.14 1.77,-7.84 18.84,24.14 z m 0,0 -1.9,-6.39 v -25.59 h 7.11 v 32 z"
     id="path118" />
  <path
     class="cls-1"
     d="m 132.03,197.1 a 16.42,16.42 0 0 1 -6.77,-1.29 16,16 0 0 1 -5.18,-3.92 l 4.62,-4.58 a 11.46,11.46 0 0 0 3.42,2.74 9.35,9.35 0 0 0 4.37,1 6.33,6.33 0 0 0 3.51,-0.82 2.56,2.56 0 0 0 1.24,-2.26 2.88,2.88 0 0 0 -0.81,-2.13 7.08,7.08 0 0 0 -2.15,-1.4 c -0.9,-0.4 -1.88,-0.77 -2.95,-1.14 -1.07,-0.37 -2.13,-0.77 -3.19,-1.24 a 13.3,13.3 0 0 1 -2.92,-1.77 8,8 0 0 1 -2.15,-2.67 9,9 0 0 1 4.57,-12.37 14.45,14.45 0 0 1 5.84,-1.11 15.7,15.7 0 0 1 6.14,1.17 12.66,12.66 0 0 1 4.6,3.22 l -4.62,4.57 a 11.14,11.14 0 0 0 -2.92,-2.22 7.47,7.47 0 0 0 -3.33,-0.72 5.39,5.39 0 0 0 -2.95,0.7 2.27,2.27 0 0 0 -1.08,2 2.56,2.56 0 0 0 0.81,2 7.13,7.13 0 0 0 2.15,1.29 c 0.89,0.36 1.87,0.72 2.95,1.08 1.08,0.36 2.13,0.79 3.19,1.27 a 13.54,13.54 0 0 1 2.92,1.83 8.29,8.29 0 0 1 2.15,2.81 9.6,9.6 0 0 1 0.82,4.19 8.69,8.69 0 0 1 -3.26,7.18 c -2.18,1.74 -5.18,2.59 -9.02,2.59 z"
     id="path120" />
  <path
     class="cls-1"
     d="m 145.49,170.83 v -6.21 h 27.13 v 6.21 z m 10,25.77 v -31.52 h 7.11 v 31.52 z"
     id="path122" />
  <path
     class="cls-1"
     d="m 176.6,196.6 v -32 h 7.11 v 32 z m 5.44,-13.18 v -5.25 h 6.74 a 4.65,4.65 0 0 0 3.29,-1.09 4.26,4.26 0 0 0 0,-5.8 4.44,4.44 0 0 0 -3.26,-1.13 h -6.77 v -5.53 h 7.6 a 12.35,12.35 0 0 1 5.58,1.2 9.37,9.37 0 0 1 3.76,3.33 9.59,9.59 0 0 1 0,9.81 9.14,9.14 0 0 1 -3.81,3.28 13.06,13.06 0 0 1 -5.75,1.18 z m 12,13.18 -10,-13.77 6.52,-1.77 11.87,15.54 z"
     id="path124" />
  <path
     class="cls-1"
     d="m 218.27,197.1 a 14.06,14.06 0 0 1 -7,-1.68 12.14,12.14 0 0 1 -4.71,-4.64 13.42,13.42 0 0 1 -1.69,-6.77 v -19.39 h 7.15 v 19.8 a 6.39,6.39 0 0 0 0.82,3.3 5.46,5.46 0 0 0 2.24,2.15 6.66,6.66 0 0 0 3.15,0.75 6.46,6.46 0 0 0 3.17,-0.75 5.5,5.5 0 0 0 2.15,-2.13 6.45,6.45 0 0 0 0.79,-3.28 v -19.84 h 7.16 v 19.43 a 13.36,13.36 0 0 1 -1.68,6.75 12,12 0 0 1 -4.66,4.62 13.94,13.94 0 0 1 -6.89,1.68 z"
     id="path126" />
  <path
     class="cls-1"
     d="m 237.2,196.6 v -32 h 5.07 l 12.59,19.65 h -2.58 l 12.55,-19.61 h 5.11 v 32 h -7.11 v -20 l 1.27,0.31 -8.2,12.77 h -4.71 l -8.15,-12.77 1.22,-0.31 v 20 z"
     id="path128" />
  <path
     class="cls-1"
     d="m 276.06,196.6 v -32 h 7.11 v 32 z m 5.43,-25.86 v -6.12 h 17.3 v 6.12 z m 0,12.5 v -5.94 h 15.94 v 5.95 z m 0,13.36 v -6.16 h 17.53 v 6.16 z"
     id="path130" />
  <path
     class="cls-1"
     d="m 566.05884,196.49128 v -32 h 7.11 v 32 z m 5.43,-25.86 v -6.12 h 17.3 v 6.12 z m 0,12.5 v -5.94 h 15.94 v 5.95 z m 0,13.36 v -6.16 h 17.53 v 6.16 z"
     id="path130-8"
     style="fill:#ffffff" />
  <path
     class="cls-1"
     d="m 303.91,196.6 v -32 h 5 l 2.13,6.39 v 25.59 z m 22.06,0 -18.85,-24.14 1.77,-7.84 18.84,24.14 z m 0,0 -1.91,-6.35 v -25.63 h 7.11 v 32 z"
     id="path132" />
  <path
     class="cls-1"
     d="m 335.16,170.83 v -6.21 h 27.18 v 6.21 z m 10,25.77 v -31.52 h 7.11 v 31.52 z"
     id="path134" />
  <path
     class="cls-1"
     d="m 463.86,197.14 a 17.17,17.17 0 0 1 -6.68,-1.27 16.65,16.65 0 0 1 -5.37,-3.53 15.91,15.91 0 0 1 -3.57,-5.28 17.29,17.29 0 0 1 0,-13 16.09,16.09 0 0 1 3.53,-5.24 16.33,16.33 0 0 1 5.32,-3.49 18.51,18.51 0 0 1 13.32,0 16.74,16.74 0 0 1 5.34,3.49 16,16 0 0 1 3.55,5.26 17.37,17.37 0 0 1 0,13 15.92,15.92 0 0 1 -3.53,5.25 16.22,16.22 0 0 1 -5.32,3.51 16.93,16.93 0 0 1 -6.59,1.3 z m -0.09,-6.48 a 9.7,9.7 0 0 0 5,-1.26 8.55,8.55 0 0 0 3.33,-3.56 11.28,11.28 0 0 0 1.18,-5.27 11.79,11.79 0 0 0 -0.68,-4.1 9,9 0 0 0 -1.95,-3.17 8.46,8.46 0 0 0 -3,-2 10.22,10.22 0 0 0 -3.87,-0.71 9.86,9.86 0 0 0 -5,1.25 8.47,8.47 0 0 0 -3.34,3.41 11.12,11.12 0 0 0 -1.18,5.28 12,12 0 0 0 0.68,4.12 9.32,9.32 0 0 0 1.92,3.19 8.41,8.41 0 0 0 3,2.06 10.17,10.17 0 0 0 3.91,0.76 z"
     id="path136" />
  <path
     class="cls-1"
     d="m 375.98,197.1 a 16.35,16.35 0 0 1 -6.77,-1.29 15.91,15.91 0 0 1 -5.19,-3.92 l 4.62,-4.58 a 11.58,11.58 0 0 0 3.42,2.74 9.35,9.35 0 0 0 4.37,1 6.33,6.33 0 0 0 3.51,-0.82 2.57,2.57 0 0 0 1.25,-2.26 2.89,2.89 0 0 0 -0.82,-2.13 7,7 0 0 0 -2.15,-1.4 c -0.89,-0.4 -1.87,-0.77 -2.95,-1.14 -1.08,-0.37 -2.13,-0.77 -3.19,-1.24 a 13.3,13.3 0 0 1 -2.92,-1.77 8,8 0 0 1 -2.15,-2.67 9,9 0 0 1 4.57,-12.37 14.47,14.47 0 0 1 5.85,-1.11 15.65,15.65 0 0 1 6.13,1.17 12.66,12.66 0 0 1 4.6,3.22 l -4.62,4.57 a 11.14,11.14 0 0 0 -2.92,-2.22 7.47,7.47 0 0 0 -3.33,-0.72 5.33,5.33 0 0 0 -2.94,0.7 2.25,2.25 0 0 0 -1.09,2 2.56,2.56 0 0 0 0.81,2 7.13,7.13 0 0 0 2.15,1.29 c 0.9,0.36 1.88,0.72 2.95,1.08 1.07,0.36 2.14,0.79 3.19,1.27 a 13.54,13.54 0 0 1 2.92,1.83 8.29,8.29 0 0 1 2.15,2.81 9.6,9.6 0 0 1 0.82,4.19 8.69,8.69 0 0 1 -3.26,7.18 q -3.27,2.59 -9.01,2.59 z"
     id="path138" />
  <path
     class="cls-1"
     d="m 398.75,188.08 v -6.07 h 16 v 6.07 z"
     id="path140" />
  <path
     class="cls-1"
     d="m 436.08,197.1 a 17.43,17.43 0 0 1 -6.63,-1.25 16.13,16.13 0 0 1 -8.9,-8.79 17.24,17.24 0 0 1 0,-13 15.88,15.88 0 0 1 3.53,-5.24 16.42,16.42 0 0 1 5.32,-3.46 18.89,18.89 0 0 1 13.41,0 16.38,16.38 0 0 1 5.19,3.35 l -4.76,4.8 a 9.1,9.1 0 0 0 -3.06,-2.13 10.44,10.44 0 0 0 -4.14,-0.77 10.12,10.12 0 0 0 -3.83,0.7 8.37,8.37 0 0 0 -3,2 9.41,9.41 0 0 0 -1.95,3.17 12.36,12.36 0 0 0 0,8.2 9.51,9.51 0 0 0 1.95,3.17 8.66,8.66 0 0 0 3,2 9.76,9.76 0 0 0 3.83,0.73 10.91,10.91 0 0 0 4.26,-0.77 9.41,9.41 0 0 0 3.12,-2.13 l 4.8,4.8 a 17.5,17.5 0 0 1 -5.28,3.35 17.76,17.76 0 0 1 -6.86,1.27 z"
     id="path142" />
  <path
     class="cls-1"
     d="m 496.98,197.1 a 14,14 0 0 1 -6.95,-1.68 12,12 0 0 1 -4.71,-4.64 13.43,13.43 0 0 1 -1.7,-6.77 v -19.39 h 7.16 v 19.8 a 6.48,6.48 0 0 0 0.81,3.3 5.46,5.46 0 0 0 2.24,2.15 6.66,6.66 0 0 0 3.15,0.75 6.43,6.43 0 0 0 3.17,-0.75 5.44,5.44 0 0 0 2.15,-2.13 6.45,6.45 0 0 0 0.8,-3.28 v -19.84 h 7.15 v 19.43 a 13.36,13.36 0 0 1 -1.68,6.75 12,12 0 0 1 -4.66,4.62 13.89,13.89 0 0 1 -6.93,1.68 z"
     id="path144" />
  <path
     class="cls-1"
     d="m 513.91,196.6 v -32 h 7.11 v 32 z m 5.43,-13.18 v -5.25 h 6.74 a 4.65,4.65 0 0 0 3.29,-1.09 4.26,4.26 0 0 0 0,-5.8 4.44,4.44 0 0 0 -3.26,-1.13 h -6.77 v -5.53 h 7.6 a 12.35,12.35 0 0 1 5.58,1.2 9.27,9.27 0 0 1 3.75,3.33 9.53,9.53 0 0 1 0,9.81 9,9 0 0 1 -3.8,3.28 13.06,13.06 0 0 1 -5.75,1.18 z m 12,13.18 -10,-13.77 6.52,-1.77 11.87,15.54 z"
     id="path146" />
  <path
     class="cls-1"
     d="m 551.64,197.1 a 16.35,16.35 0 0 1 -6.77,-1.29 15.91,15.91 0 0 1 -5.19,-3.92 l 4.62,-4.58 a 11.58,11.58 0 0 0 3.42,2.74 9.35,9.35 0 0 0 4.37,1 6.33,6.33 0 0 0 3.51,-0.82 2.57,2.57 0 0 0 1.25,-2.26 2.89,2.89 0 0 0 -0.82,-2.13 7,7 0 0 0 -2.15,-1.4 c -0.89,-0.4 -1.87,-0.77 -2.95,-1.14 -1.08,-0.37 -2.13,-0.77 -3.19,-1.24 a 13.3,13.3 0 0 1 -2.92,-1.77 8,8 0 0 1 -2.15,-2.67 9,9 0 0 1 4.57,-12.37 14.47,14.47 0 0 1 5.85,-1.11 15.65,15.65 0 0 1 6.13,1.17 12.66,12.66 0 0 1 4.6,3.22 l -4.62,4.57 a 11.14,11.14 0 0 0 -2.92,-2.22 7.47,7.47 0 0 0 -3.33,-0.72 5.33,5.33 0 0 0 -2.94,0.7 2.25,2.25 0 0 0 -1.09,2 2.56,2.56 0 0 0 0.81,2 7.13,7.13 0 0 0 2.15,1.29 c 0.9,0.36 1.88,0.72 3,1.08 1.12,0.36 2.14,0.79 3.19,1.27 a 13.54,13.54 0 0 1 2.92,1.83 8.29,8.29 0 0 1 2.15,2.81 9.6,9.6 0 0 1 0.82,4.19 8.69,8.69 0 0 1 -3.26,7.18 q -3.36,2.59 -9.06,2.59 z"
     id="path148" />
  <path
     class="cls-1"
     d="m 602.09,197.1 a 16.39,16.39 0 0 1 -6.77,-1.29 15.91,15.91 0 0 1 -5.19,-3.92 l 4.62,-4.58 a 11.71,11.71 0 0 0 3.42,2.74 9.38,9.38 0 0 0 4.37,1 6.33,6.33 0 0 0 3.51,-0.82 2.57,2.57 0 0 0 1.29,-2.28 2.85,2.85 0 0 0 -0.82,-2.13 7,7 0 0 0 -2.15,-1.4 c -0.89,-0.4 -1.87,-0.77 -2.94,-1.14 -1.07,-0.37 -2.14,-0.77 -3.19,-1.24 a 13.3,13.3 0 0 1 -2.92,-1.77 8,8 0 0 1 -2.16,-2.67 9,9 0 0 1 4.54,-12.35 14.45,14.45 0 0 1 5.84,-1.11 15.73,15.73 0 0 1 6.14,1.17 12.62,12.62 0 0 1 4.59,3.22 l -4.62,4.57 a 11,11 0 0 0 -2.92,-2.22 7.47,7.47 0 0 0 -3.33,-0.72 5.38,5.38 0 0 0 -2.94,0.7 2.25,2.25 0 0 0 -1.09,2 2.54,2.54 0 0 0 0.82,2 7,7 0 0 0 2.15,1.29 q 1.34,0.54 2.94,1.08 c 1.07,0.37 2.14,0.79 3.2,1.27 a 13.78,13.78 0 0 1 2.92,1.83 8.29,8.29 0 0 1 2.15,2.81 9.75,9.75 0 0 1 0.81,4.19 8.66,8.66 0 0 1 -3.26,7.18 q -3.25,2.59 -9.01,2.59 z"
     id="path152" />
  <path
     class="cls-2"
     d="m 9.66,106.25 c -3,-0.05 -5.7,4.71 -5.37,12 0.39,8.57 6.43,17.27 6.43,25.55 0,7.09 -10.81,14.78 -10.71,29.35 0.1,16.6 8.4,25.71 31.15,25.71 22.75,0 28.32,-10.87 28.32,-25 0,-13 -8.38,-17.35 -8.38,-27.07 0,-10.22 5.42,-14.88 6.43,-20.6 1.19,-6.77 -2.56,-9.85 -5.33,-8.78 -2.46,1 -1.34,7.37 -9.92,7.55 -4.12,0.09 -7.16,-3.77 -7.16,-13.33 0,-9.56 -9.64,-10.6 -10.22,-1.22 -0.18,2.78 -1.06,8.14 -6.81,8.17 -6.4,0.01 -4.61,-12.22 -8.43,-12.33 z"
     id="path154" />
  <polygon
     class="cls-2"
     points="24.62,124.69 35.27,124.69 33.42,35.05 26.46,35.05 "
     id="polygon156" />
  <path
     class="cls-2"
     d="M 40.58,25.87 A 61.86,61.86 0 0 1 41.34,8.6 C 43.01,0.19 40.87,-4.55 36.22,6.33 L 25.08,32.45 c -0.44,1 -1.17,1.46 0.31,3.55 a 4.71,4.71 0 0 1 1,2.35 h 7.09 c 0,-1.18 1.37,-4.32 3.87,-6.42 1.54,-1.3 3.39,-4.22 3.23,-6.06 z"
     id="path158" />
  <rect
     class="cls-1"
     x="4.182281"
     y="34.124668"
     width="1"
     height="3.3800001"
     transform="rotate(-66.84)"
     id="rect160" />
  <path
     class="cls-2"
     d="m 32.97,10.63 -1.08,-0.46 c -0.85,-0.76 0,-2.71 1.13,-2.63 L 34.09,8 c 0.47,0.6 -0.37,2.56 -1.12,2.63 z"
     id="path162" />
  <rect
     class="cls-1"
     x="-0.40374261"
     y="34.125034"
     width="1"
     height="3.3800001"
     transform="rotate(-66.83)"
     id="rect164" />
  <path
     class="cls-2"
     d="m 31.16,14.86 -1.08,-0.47 c -0.85,-0.76 0,-2.71 1.13,-2.63 l 1.13,0.49 c 0.41,0.57 -0.43,2.53 -1.18,2.61 z"
     id="path166" />
  <rect
     class="cls-1"
     x="-4.9904346"
     y="34.13031"
     width="1"
     height="3.3800001"
     transform="rotate(-66.82)"
     id="rect168" />
  <path
     class="cls-2"
     d="m 29.34,19.08 -1.07,-0.46 c -0.85,-0.76 0,-2.72 1.12,-2.63 l 1.08,0.46 c 0.48,0.59 -0.36,2.55 -1.13,2.63 z"
     id="path170" />
  <rect
     class="cls-1"
     x="-9.6006985"
     y="34.113747"
     width="1"
     height="3.3800001"
     transform="rotate(-66.85)"
     id="rect172" />
  <path
     class="cls-2"
     d="m 27.55,23.3 -1.08,-0.46 c -0.85,-0.76 0,-2.72 1.13,-2.63 l 1.07,0.46 c 0.47,0.58 -0.33,2.58 -1.12,2.63 z"
     id="path174" />
  <rect
     class="cls-1"
     x="-14.170331"
     y="34.131611"
     width="1"
     height="3.3800001"
     transform="rotate(-66.83)"
     id="rect176" />
  <path
     class="cls-2"
     d="m 25.74,27.52 -1.08,-0.46 c -0.85,-0.76 0,-2.72 1.13,-2.63 l 1.08,0.46 c 0.47,0.59 -0.38,2.56 -1.13,2.63 z"
     id="path178" />
  <rect
     class="cls-1"
     x="-18.767174"
     y="34.127407"
     width="1"
     height="3.3800001"
     transform="rotate(-66.83)"
     id="rect180" />
  <path
     class="cls-2"
     d="m 23.94,31.74 -1.08,-0.49 c -0.85,-0.76 0,-2.72 1.12,-2.63 l 1.08,0.46 c 0.47,0.63 -0.37,2.59 -1.12,2.66 z"
     id="path182" />
  <path
     class="cls-3"
     d="M 480.34,142.87 V 49.18 h 26.31 v 93.69 z m 21.45,0 V 120.5 h 43.82 v 22.37 z"
     id="path184" />
  <path
     class="cls-3"
     d="M 546.53,142.87 582.2,49.18 h 26.84 l 35.3,93.69 h -27.4 L 590.75,63.25 h 9.47 l -26.88,79.62 z m 23.17,-15.79 v -20.53 h 52.37 v 20.53 z"
     id="path186" />
  <path
     style="fill:#d40000;stroke-width:0.26624"
     d="M 480.29636,95.979401 V 48.988099 h 13.17887 13.17886 v 35.676116 35.676115 h 19.56862 19.56861 v 11.31519 11.31518 h -32.74748 -32.74748 z"
     id="path435" />
  <path
     style="fill:#d40000;stroke-width:0.26624"
     d="m 546.59004,142.69961 c 0,-0.14911 1.63013,-4.55204 3.62251,-9.78431 1.99238,-5.23227 4.0779,-10.71129 4.6345,-12.17561 2.17363,-5.71847 3.20655,-8.42837 4.92185,-12.91262 1.87399,-4.89909 2.86708,-7.5073 5.27138,-13.844467 0.80556,-2.123261 2.81283,-7.394807 4.46061,-11.714545 1.64777,-4.319739 3.14708,-8.273398 3.33179,-8.785909 0.1847,-0.512512 1.25292,-3.327996 2.37381,-6.256632 1.12089,-2.928637 2.76707,-7.241719 3.65817,-9.584629 0.8911,-2.342909 1.99794,-5.218297 2.45964,-6.389752 l 0.83946,-2.129917 h 13.42615 13.42616 l 0.352,0.734434 c 0.19361,0.403938 0.69094,1.661921 1.10518,2.795516 0.41425,1.133596 2.51635,6.733589 4.67133,12.44443 4.26419,11.300319 8.42967,22.372631 11.16798,29.685723 0.95952,2.562557 1.97643,5.258238 2.2598,5.990388 0.28337,0.73216 1.19197,3.12832 2.0191,5.3248 0.82712,2.19648 2.02526,5.37138 2.66252,7.05535 1.88713,4.98676 4.9176,13.02978 5.71792,15.17566 0.40959,1.09824 1.77598,4.74074 3.03641,8.09444 1.26043,3.3537 2.29169,6.20021 2.29169,6.32559 0,0.12537 -6.17823,0.19691 -13.72941,0.15899 l -13.7294,-0.069 -2.57176,-7.7895 -2.57175,-7.7895 -16.4954,0.0686 -16.4954,0.0686 -0.47173,1.3312 c -0.25945,0.73216 -1.44541,4.23654 -2.63546,7.78751 l -2.16374,6.45631 h -13.42296 c -8.9314,0 -13.42295,-0.0907 -13.42295,-0.27109 z m 57.32531,-39.06582 c -0.50899,-1.57414 -2.11041,-6.456311 -3.55871,-10.849265 -1.4483,-4.392955 -3.151,-9.582906 -3.78379,-11.533226 l -1.15052,-3.546035 -1.50208,4.477874 c -0.82615,2.462831 -2.8388,8.431533 -4.47257,13.263783 -1.63377,4.832249 -3.12749,9.295089 -3.31939,9.917429 l -0.3489,1.13152 h 9.5307 9.5307 z"
     id="path437" />
  <path
     style="fill:#d40000;fill-opacity:1;stroke-width:0.26624"
     d="M 22.497252,198.47855 C 9.2657568,196.59754 2.3410726,190.67057 0.40522133,179.56958 -0.17573834,176.23811 -0.12654534,170.10859 0.50573838,167.045 1.2367969,163.50283 2.9705978,159.42878 5.8102707,154.58052 10.379872,146.7787 10.9018,145.28898 10.396339,141.49067 c -0.345747,-2.59814 -1.3428929,-6.09379 -3.0753387,-10.7811 -2.3517676,-6.36295 -2.8421936,-8.46001 -2.9853571,-12.7654 -0.1451123,-4.36399 0.2188528,-6.58965 1.446461,-8.84517 1.0646051,-1.95603 2.229402,-2.86937 3.6593444,-2.86937 1.4874314,0 2.0649154,0.67699 2.8116474,3.29615 1.390363,4.87668 1.932273,6.27986 2.830616,7.32937 1.229748,1.43669 2.499475,1.82285 4.512406,1.37238 2.549364,-0.57052 4.284928,-2.64204 4.890976,-5.83772 0.211785,-1.11673 1.275516,-46.030986 1.659428,-70.066534 l 0.07456,-4.668028 -0.863516,-1.345674 c -0.958952,-1.494398 -1.091035,-2.616087 -0.453277,-3.849375 0.507535,-0.981464 0.263058,-1.520125 -0.412463,-0.908786 -0.442971,0.400883 -0.548223,0.401729 -1.304767,0.01052 -0.639908,-0.33092 -0.822927,-0.601678 -0.822927,-1.217445 0,-0.851655 0.802171,-1.856841 1.481821,-1.856841 0.728651,0 1.446815,0.533271 1.446815,1.074325 0,0.991056 0.666871,0.519498 1.237267,-0.874898 0.314416,-0.768628 0.523898,-1.447606 0.465517,-1.508838 -0.05838,-0.06124 -0.400054,0.04596 -0.759275,0.238207 -1.512789,0.809621 -2.737607,-1.394532 -1.475988,-2.656151 0.617987,-0.617987 0.800207,-0.641693 1.718031,-0.223504 0.384434,0.17516 0.678126,0.530689 0.678126,0.820905 0,0.881564 0.586116,0.365447 1.222477,-1.076476 0.420864,-0.953627 0.508022,-1.384603 0.28002,-1.384603 -0.182073,0 -0.468145,0.137104 -0.635719,0.304676 -0.22874,0.228741 -0.507432,0.22069 -1.118207,-0.0323 -0.680199,-0.281749 -0.81353,-0.484401 -0.81353,-1.236515 0,-1.150673 0.847803,-2.066596 1.677617,-1.812411 0.784962,0.240446 1.25102,0.636414 1.25102,1.06288 0,0.891471 0.499258,0.492464 1.051772,-0.840577 0.627846,-1.514794 0.588863,-2.027597 -0.110043,-1.447557 -0.565791,0.469567 -1.700664,0.120583 -2.041664,-0.627831 -0.404612,-0.888028 0.341671,-2.292596 1.218116,-2.292596 0.975286,0 1.479257,0.274263 1.479257,0.805017 0,1.05741 0.685551,0.659373 1.280461,-0.743447 0.637135,-1.502387 0.615434,-1.971904 -0.06504,-1.407158 -0.615174,0.510548 -1.982645,0.09945 -2.171446,-0.652789 -0.199648,-0.795468 0.413018,-2.093381 1.045672,-2.215219 0.88173,-0.169806 1.774032,0.203325 1.774032,0.74184 0,1.073158 0.567623,0.798324 1.174629,-0.568737 0.692406,-1.559393 0.662273,-1.9708395 -0.109057,-1.489136 -0.806387,0.503598 -1.977253,-0.02964 -2.083315,-0.9487917 -0.108602,-0.9411703 0.596108,-2.0412486 1.307623,-2.0412486 0.844262,0 1.573798,0.4980064 1.573798,1.0743261 0,0.9041837 0.557099,0.5700556 1.014408,-0.6084067 0.799462,-2.0601681 2.63725,-5.6400712 3.493434,-6.8049972 0.72987,-0.99306092 0.957928,-1.13631415 1.695407,-1.06495871 0.729869,0.07061885 0.903553,0.23521357 1.21077,1.14740431 0.418052,1.2412905 0.271511,4.7159107 -0.331242,7.8540702 -0.745498,3.8813393 -1.038995,8.2708553 -0.883897,13.2195343 l 0.151469,4.832985 -0.75836,1.603553 c -0.474625,1.003593 -1.466616,2.333144 -2.651348,3.553565 -1.256326,1.294173 -2.198993,2.576814 -2.802833,3.813689 L 33.57288,37.939156 34.343,74.28087 c 0.423563,19.987943 0.847808,37.47989 0.942765,38.87099 0.661893,9.6966 4.051057,13.25303 10.526949,11.04647 1.838472,-0.62643 2.986085,-1.74451 4.214906,-4.10646 1.269282,-2.43972 1.845358,-2.94681 3.346116,-2.94542 1.440693,0.001 2.606418,0.7671 3.506928,2.3037 0.646728,1.10356 0.759827,1.61507 0.849219,3.84067 0.130335,3.24495 -0.196423,4.41091 -2.754531,9.82901 -2.946371,6.24044 -3.617625,8.68415 -3.652579,13.29721 -0.02752,3.63192 0.462729,5.1883 3.778547,11.99556 4.027727,8.2688 4.769705,11.20344 4.439267,17.55798 -0.670998,12.90373 -6.095671,19.49897 -18.204129,22.13234 -3.424934,0.74486 -14.665455,0.96898 -18.839204,0.37563 z"
     id="path1563" />
</svg>
